<svg width="53" height="64" viewBox="0 0 53 64" fill="none" xmlns="http://www.w3.org/2000/svg">
<g id="Group">
<path id="Vector" fill-rule="evenodd" clip-rule="evenodd" d="M33.6733 6.02675C29.1815 6.2777 24.7201 6.92014 20.34 7.94675C19.6733 7.94675 14.82 8.66675 14.26 8.90675C14.1565 8.93049 14.0593 8.97601 13.9749 9.04028C13.8904 9.10454 13.8206 9.18608 13.7701 9.27945C13.7197 9.37282 13.6897 9.47587 13.6822 9.58174C13.6747 9.68761 13.6899 9.79387 13.7267 9.89342C14.0733 10.9067 22.4733 9.89342 34.0733 8.96008C37.54 8.50675 39.94 7.78675 43.1933 7.14675C44.9084 6.89856 46.596 6.48782 48.2333 5.92008C48.2869 5.8194 48.3191 5.70871 48.3279 5.59498C48.3367 5.48125 48.3218 5.36693 48.2842 5.25923C48.2466 5.15153 48.1872 5.05276 48.1096 4.96916C48.032 4.88555 47.9379 4.8189 47.8333 4.77342C47.3533 4.26675 46.82 4.56008 33.6733 6.02675Z" fill="#343434"/>
<path id="Vector_2" fill-rule="evenodd" clip-rule="evenodd" d="M51.6733 42.6667V11.7067C51.6733 11.44 52.0733 10.3734 50.9 10.3734C50.66 10.3734 46.5 11.2 46.2333 11.2534L37.5133 11.9467C31.9667 12.48 26.3933 12.6667 20.8467 13.04C13.3 13.5734 12.8467 14.0534 9.75332 13.6534C8.60666 13.4934 7.45999 13.36 7.08666 12.6667C6.91129 12.2074 6.88119 11.7054 7.00042 11.2285C7.11965 10.7515 7.38246 10.3227 7.75332 10C10.5 6.64004 16.1267 5.33337 20.3667 4.29337C30.1533 1.92004 33.5133 2.80004 40.3933 2.3467C44.3133 2.08004 46.7933 1.81337 46.5267 0.613369C46.5077 0.510761 46.4682 0.413049 46.4105 0.326115C46.3528 0.239182 46.2781 0.164826 46.1909 0.107523C46.1037 0.0502206 46.0058 0.011157 45.9031 -0.00731566C45.8004 -0.0257883 45.695 -0.0232878 45.5933 3.51611e-05C36.0733 2.05337 31.0067 -2.02663 12.2333 3.7067C2.49999 6.80004 -0.166676 17.04 12.26 16.7734C10.4955 29.8967 10.0934 43.1673 11.06 56.3734C11.06 58.5334 11.06 59.84 11.86 60.1067C13.4333 60.56 13.1133 58.1067 13.0333 56.3734C13.0333 40.8 13.7533 46 13.78 27.04C13.78 15.4667 13.78 16.56 14.0467 16.5334C22.6067 15.3067 40.7133 14.2667 49.7533 12.4C48.9533 65.7334 49.46 33.8667 49.5667 48.3734C49.5941 49.1148 49.5404 49.857 49.4067 50.5867C49.0867 52.5867 26.66 58.4534 21.7533 59.6534C15.4867 61.2267 10.66 61.68 4.73999 58.96C2.07332 53.4134 3.08666 24.4267 3.59332 18.96C3.61454 18.7549 3.55341 18.5498 3.42339 18.3898C3.29336 18.2297 3.10509 18.1279 2.89999 18.1067C2.69489 18.0855 2.48976 18.1466 2.32973 18.2766C2.1697 18.4067 2.06787 18.5949 2.04666 18.8C1.37999 24.2934 -0.353343 52.3734 1.83332 59.2C2.41999 61.0667 3.21999 61.44 4.87332 62.1334C8.30266 63.6965 12.0799 64.3398 15.8333 64C24.9494 62.4861 33.8854 60.0376 42.5 56.6934C44.8331 56.0719 47.1225 55.2969 49.3533 54.3734C53.86 51.9467 51.7267 47.4134 51.6733 42.6667Z" fill="#343434"/>
<path id="Vector_3" fill-rule="evenodd" clip-rule="evenodd" d="M21.1667 35.2267C22.8467 35.6801 24.6067 35.2267 36.34 33.1734C38.1 32.8534 40.82 32.6934 41.6733 31.0134C42.1767 29.4275 42.2775 27.7413 41.9667 26.1067C41.9667 24.8267 43.4867 19.1201 40.26 19.2534C40.1 19.2534 21.0067 22.2401 19.8067 22.2667C19.5733 22.2667 19.3494 22.3594 19.1844 22.5245C19.0194 22.6895 18.9267 22.9133 18.9267 23.1467C18.9267 23.8401 19.1667 22.4267 18.9267 26.7201C19.14 29.7067 17.6733 34.2134 21.1667 35.2267ZM20.9267 24.0001C22.9533 24.0001 17.46 24.1601 40.1 22.2134C39.4867 30.9867 39.8867 29.4401 35.9133 30.2134C22.82 32.8801 21.8867 33.4667 21.3267 32.8801C20.7667 32.2934 21.1667 28.2667 20.98 26.6667C20.98 26.5067 20.9 24.9334 20.9267 24.0001Z" fill="#003366"/>
<path id="Vector_4" fill-rule="evenodd" clip-rule="evenodd" d="M39.2467 40C39.3428 39.8318 39.3899 39.64 39.3828 39.4463C39.3758 39.2527 39.3147 39.0648 39.2066 38.904C39.0984 38.7432 38.9475 38.6158 38.7709 38.5362C38.5942 38.4566 38.3988 38.4279 38.2067 38.4534C37.4333 38.4534 35.54 38.6667 35.06 38.6667C30.9353 38.591 26.8189 39.0663 22.82 40.08C21.1667 39.8934 21.54 41.0667 22.3933 41.4934C24.5267 43.3067 38.6867 40.6134 39.2467 40Z" fill="#003366"/>
<path id="Vector_5" fill-rule="evenodd" clip-rule="evenodd" d="M22.7933 52.1067C23.4028 52.1111 24.0109 52.0485 24.6067 51.9201C26.6416 51.8727 28.6719 51.7035 30.6867 51.4134C33.86 50.8801 36.82 49.7601 39.6733 49.5201C39.8838 49.4836 40.0746 49.3739 40.2121 49.2105C40.3497 49.0471 40.4251 48.8403 40.4251 48.6267C40.4251 48.4131 40.3497 48.2064 40.2121 48.043C40.0746 47.8795 39.8838 47.7699 39.6733 47.7334C32.42 47.1201 22.5 50.4001 22.2867 51.0134C22.0733 51.6267 22.42 51.9201 22.7933 52.1067Z" fill="#003366"/>
</g>
</svg>
