<svg width="23" height="25" viewBox="0 0 23 25" fill="none" xmlns="http://www.w3.org/2000/svg">
<g id="Group">
<path id="Vector" d="M10.2875 2.70674C10.1675 2.38674 10.0875 2.43674 8.16753 0.846742C8.09409 0.797506 8.00475 0.777884 7.91744 0.791821C7.83013 0.805758 7.75134 0.852221 7.69688 0.921873C7.64242 0.991525 7.61635 1.0792 7.62389 1.1673C7.63143 1.25539 7.67203 1.33736 7.73753 1.39674C10.1675 3.50674 9.55753 2.67674 9.51753 4.12674C9.5387 5.49778 9.45512 6.86843 9.26753 8.22674C9.19392 8.68963 9.09037 9.14726 8.95753 9.59674C8.8993 9.67432 8.83218 9.74481 8.75753 9.80674C8.75753 9.80674 8.65753 9.80674 8.59753 9.80674C7.62817 9.85652 6.65689 9.85652 5.68753 9.80674C4.3938 9.78949 3.10194 9.7027 1.81753 9.54674C2.37753 7.70674 2.34753 5.29674 2.52753 1.65674C3.75753 1.42674 5.82753 1.17674 6.29753 1.12674C6.37974 1.1095 6.45175 1.06031 6.49769 0.989984C6.54364 0.919657 6.55977 0.83396 6.54253 0.751742C6.52529 0.669525 6.47609 0.597524 6.40577 0.551577C6.33544 0.505631 6.24974 0.489503 6.16753 0.506742C4.44753 0.646742 5.16753 0.576742 2.82753 0.826742C1.47753 1.03674 1.76753 0.646742 1.23753 6.62674C1.1431 7.71104 0.890417 8.77566 0.487527 9.78674C0.440795 9.87229 0.415989 9.96809 0.415327 10.0656C0.414665 10.1631 0.438168 10.2592 0.483733 10.3454C0.529299 10.4315 0.595508 10.5051 0.676442 10.5594C0.757376 10.6138 0.850512 10.6472 0.947527 10.6567C2.52301 10.8613 4.10897 10.9748 5.69753 10.9967C9.31753 10.9367 10.1175 11.6067 10.3575 7.27674C10.3575 3.24674 10.4875 3.09674 10.2875 2.70674Z" fill="#003366"/>
<path id="Vector_2" d="M22.3375 3.24674C22.3375 2.40674 21.9475 2.38674 20.0575 0.84674C20.0009 0.810145 19.9349 0.790678 19.8675 0.790678C19.8001 0.790678 19.7341 0.810145 19.6775 0.84674C14.4075 0.68674 13.8975 0.78674 13.6775 1.35674C13.4575 1.92674 13.2875 6.41674 12.8775 8.35674C12.5275 10.0067 12.1775 9.95674 12.4075 10.4067C12.4515 10.4953 12.5182 10.5707 12.6007 10.6251C12.6833 10.6796 12.7788 10.7112 12.8775 10.7167C13.8775 10.8167 14.7875 10.9267 15.6975 10.9867C16.6075 11.0467 19.6975 11.0967 20.4075 10.9867C21.8675 10.8267 21.9875 9.90674 22.1775 8.40674C22.3294 6.99875 22.3662 5.58071 22.2875 4.16674C22.2875 3.92674 22.3475 3.55674 22.3375 3.24674ZM21.5275 3.36674C21.5275 3.64674 21.4575 3.94674 21.4475 4.12674C21.4998 5.84187 21.3487 7.55715 20.9975 9.23674C20.991 9.3551 20.958 9.47049 20.9009 9.57435C20.8438 9.67822 20.764 9.76789 20.6675 9.83674C20.4775 9.97674 16.0275 9.77674 15.7875 9.75674C15.1175 9.70674 14.4575 9.63674 13.7875 9.56674C14.3675 7.68674 14.3375 5.24674 14.5175 1.70674C16.2253 1.4904 17.9464 1.39682 19.6675 1.42674L20.8675 2.42674C21.4775 3.01674 21.5575 2.88674 21.5275 3.36674Z" fill="#003366"/>
<path id="Vector_3" d="M9.01752 15.4167C7.66752 14.3167 7.60752 14.1767 7.33752 14.3267C5.45752 14.2667 2.11752 14.0967 1.52752 14.5567C0.937518 15.0167 1.08752 21.5067 0.0775179 23.2967C0.0285363 23.3826 0.00191514 23.4794 9.95376e-05 23.5782C-0.00171606 23.6771 0.021332 23.7748 0.067127 23.8624C0.112922 23.95 0.179996 24.0247 0.262188 24.0796C0.344379 24.1345 0.439055 24.1679 0.537518 24.1767C2.11316 24.3783 3.69914 24.4884 5.28752 24.5067C8.91752 24.4367 9.68752 25.1167 9.94752 20.7967C9.94752 15.5667 10.2875 16.5067 9.01752 15.4167ZM9.16752 16.8767C9.16752 17.1567 9.09752 17.4567 9.08752 17.6367C9.1398 19.3519 8.98875 21.0671 8.63752 22.7467C8.56752 23.0367 8.63752 23.1067 8.30752 23.3467C7.97752 23.5867 3.65752 23.2867 3.42752 23.2667C2.75752 23.2167 2.09752 23.1467 1.42752 23.0767C1.98752 21.2567 1.95752 19.1467 2.15752 15.2167C3.875 14.9973 5.60653 14.907 7.33752 14.9467L8.53752 15.9467C9.16752 16.5067 9.21752 16.3967 9.16752 16.8767Z" fill="#003366"/>
<path id="Vector_4" d="M20.9375 15.4167C19.5875 14.3167 19.5375 14.1767 19.2675 14.3267C17.3975 14.2667 14.0375 14.0967 13.4575 14.5567C12.8775 15.0167 13.0475 21.3867 12.0075 23.2967C11.9587 23.3819 11.932 23.4779 11.9296 23.576C11.9273 23.6741 11.9495 23.7712 11.9942 23.8586C12.0389 23.946 12.1046 24.0208 12.1855 24.0764C12.2664 24.1319 12.3599 24.1664 12.4575 24.1767C14.0367 24.3749 15.626 24.4818 17.2175 24.4967C20.8475 24.4267 21.6175 25.1067 21.8675 20.7867C21.8675 15.5667 22.2175 16.5067 20.9375 15.4167ZM21.1675 16.8767C21.1675 17.1567 21.0875 17.4567 21.0875 17.6367C21.1408 19.3524 20.9864 21.0682 20.6275 22.7467C20.6233 22.8656 20.5912 22.9818 20.5339 23.086C20.4766 23.1902 20.3956 23.2795 20.2975 23.3467C20.1175 23.4867 15.6575 23.2867 15.4175 23.2667C14.7575 23.2167 14.0975 23.1467 13.4175 23.0767C13.9875 21.2567 13.9575 19.0767 14.1575 15.2167C15.8716 14.9971 17.5999 14.9068 19.3275 14.9467L20.5275 15.9467C21.0575 16.5067 21.1675 16.3967 21.1675 16.8767Z" fill="#003366"/>
<path id="Vector_5" fill-rule="evenodd" clip-rule="evenodd" d="M5.5675 4.50673H6.5075C7.9975 4.32673 8.1675 4.38673 8.1675 4.16673C8.1675 3.94673 6.7975 3.77673 6.2575 3.77673H5.2575C3.5875 3.93673 3.6075 3.98673 3.5975 4.11673C3.6675 4.43673 5.2375 4.50673 5.5675 4.50673Z" fill="#343434"/>
<path id="Vector_6" fill-rule="evenodd" clip-rule="evenodd" d="M5.39752 7.18675H6.33752C7.83752 7.08675 7.98752 7.18675 8.03752 6.92675C8.08752 6.66675 6.67752 6.50675 6.16752 6.50675C5.83454 6.48514 5.50051 6.48514 5.16752 6.50675C3.49752 6.65675 3.52752 6.71675 3.51752 6.83675C3.49752 7.13675 5.07752 7.18675 5.39752 7.18675Z" fill="#343434"/>
<path id="Vector_7" fill-rule="evenodd" clip-rule="evenodd" d="M5.10753 18.3768H6.04753C7.54753 18.2668 7.69753 18.3768 7.74753 18.1068C7.79753 17.8368 6.37753 17.7168 5.84753 17.7068C5.52753 17.7068 5.20753 17.7068 4.84753 17.7568C3.17753 17.9068 3.20753 17.9668 3.18753 18.0868C3.16753 18.3268 4.78753 18.3768 5.10753 18.3768Z" fill="#343434"/>
<path id="Vector_8" fill-rule="evenodd" clip-rule="evenodd" d="M4.94752 21.0867H5.87752C7.37752 20.9767 7.53752 21.0367 7.57752 20.8167C7.61752 20.5967 6.21752 20.4267 5.67752 20.4167C5.35752 20.4167 5.03752 20.4167 4.67752 20.4667C3.00752 20.6267 3.02752 20.6767 3.01752 20.8067C3.03752 21.0367 4.61752 21.0867 4.94752 21.0867Z" fill="#343434"/>
<path id="Vector_9" fill-rule="evenodd" clip-rule="evenodd" d="M16.9275 18.7367C17.2475 18.7367 17.5575 18.7367 17.8675 18.6867C19.3675 18.5867 19.5275 18.6367 19.5675 18.4267C19.6075 18.2167 18.2075 18.0267 17.6675 18.0267C17.3501 18.0232 17.0328 18.0399 16.7175 18.0767C15.0375 18.2267 15.0675 18.2867 15.0575 18.4067C15.0275 18.6867 16.6075 18.7367 16.9275 18.7367Z" fill="#343434"/>
<path id="Vector_10" fill-rule="evenodd" clip-rule="evenodd" d="M16.7675 21.4367C17.0775 21.4367 17.3875 21.4367 17.6975 21.3867C19.1975 21.2867 19.3575 21.3367 19.3975 21.1267C19.4375 20.9167 18.0375 20.7267 17.4975 20.7267C17.1775 20.7267 16.8575 20.7267 16.5475 20.7767C14.8775 20.9267 14.8975 20.9867 14.8875 21.1067C14.8575 21.3867 16.4375 21.4367 16.7675 21.4367Z" fill="#343434"/>
<path id="Vector_11" fill-rule="evenodd" clip-rule="evenodd" d="M17.3475 4.66673H18.2875C19.7775 4.55673 19.9375 4.61673 19.9875 4.39673C20.0375 4.17673 18.6175 4.00673 18.0775 3.99673C17.7675 3.99673 17.4475 3.99673 17.1275 4.04673C15.4575 4.20673 15.4775 4.25673 15.4675 4.38673C15.4375 4.61673 17.0175 4.66673 17.3475 4.66673Z" fill="#343434"/>
<path id="Vector_12" fill-rule="evenodd" clip-rule="evenodd" d="M17.1675 7.36674C17.4875 7.36674 17.7975 7.36674 18.1075 7.31674C19.6075 7.20674 19.7575 7.31674 19.8075 7.05674C19.8575 6.79674 18.4375 6.65674 17.9075 6.65674H16.9075C15.2375 6.81674 15.2675 6.86674 15.2575 6.99674C15.2475 7.12674 16.8575 7.36674 17.1675 7.36674Z" fill="#343434"/>
</g>
</svg>
