<svg width="24" height="23" viewBox="0 0 24 23" fill="none" xmlns="http://www.w3.org/2000/svg">
<g id="Group">
<path id="Vector" fill-rule="evenodd" clip-rule="evenodd" d="M9.86 14.24C10.6873 14.5135 11.5632 14.6089 12.43 14.52C13.4576 14.4869 14.4551 14.1649 15.308 13.5908C16.161 13.0168 16.8349 12.2139 17.2524 11.2744C17.67 10.3349 17.8143 9.29672 17.6689 8.27893C17.5234 7.26114 17.094 6.30495 16.43 5.52001C15.8553 4.83921 15.1293 4.30232 14.31 3.9523C13.4907 3.60227 12.6009 3.44882 11.7117 3.50421C10.8225 3.55961 9.95855 3.82231 9.18903 4.27131C8.41952 4.72031 7.76574 5.34315 7.28 6.09001C5.67 8.48001 6.51 11.98 8.11 13.01C8.17763 13.0578 8.26145 13.0767 8.34303 13.0626C8.42461 13.0485 8.49726 13.0026 8.545 12.935C8.59274 12.8674 8.61165 12.7836 8.59759 12.702C8.58352 12.6204 8.53763 12.5478 8.47 12.5C7.19 11.6 6.61 8.50001 8.06 6.61001C8.48065 6.02265 9.02822 5.53758 9.66203 5.19084C10.2958 4.8441 10.9996 4.64459 11.7211 4.60712C12.4426 4.56966 13.1633 4.6952 13.8296 4.97442C14.4959 5.25364 15.0908 5.67938 15.57 6.22001C17.94 9.03001 16.57 13.3 12.36 13.79C11.5939 13.8977 10.8137 13.8432 10.07 13.63C10.0272 13.5973 9.97727 13.5752 9.92427 13.5655C9.87127 13.5559 9.81674 13.559 9.76517 13.5745C9.71359 13.5901 9.66646 13.6177 9.62764 13.655C9.58882 13.6924 9.55943 13.7384 9.5419 13.7894C9.52436 13.8403 9.51918 13.8947 9.52678 13.948C9.53438 14.0013 9.55454 14.0521 9.58561 14.0961C9.61667 14.1401 9.65775 14.1761 9.70546 14.2011C9.75316 14.2261 9.80613 14.2395 9.86 14.24Z" fill="#343434"/>
<path id="Vector_2" fill-rule="evenodd" clip-rule="evenodd" d="M23.64 5.30003C23.52 4.21003 23.57 2.03003 22.72 1.43003C20.81 0.0700293 16.72 0.430029 13.91 0.340029C10.43 0.220029 6.7 0.500029 3.29 0.590029C3.24116 0.58156 3.19106 0.583871 3.14321 0.596802C3.09536 0.609732 3.05092 0.632968 3.01299 0.664883C2.97507 0.696798 2.94458 0.736619 2.92366 0.781557C2.90275 0.826494 2.89191 0.875462 2.89191 0.925029C2.89191 0.974596 2.90275 1.02356 2.92366 1.0685C2.94458 1.11344 2.97507 1.15326 3.01299 1.18518C3.05092 1.21709 3.09536 1.24033 3.14321 1.25326C3.19106 1.26619 3.24116 1.2685 3.29 1.26003C6.75 1.26003 10.36 1.00003 13.87 1.18003C16.3 1.31003 20.54 1.05003 22.13 2.18003C22.51 2.46003 22.52 4.64003 22.6 5.38003C22.9382 8.06812 22.9617 10.7865 22.67 13.48C22.6213 14.3736 22.4738 15.259 22.23 16.12C19.83 17.34 2.52 18.36 1.48 16.68C1.09857 15.3279 0.883643 13.9343 0.840002 12.53C0.697793 8.90586 0.898688 5.27636 1.44 1.69003C1.73 1.42003 1.32 0.980029 1.04 1.25003C0.610002 1.64003 0.690002 2.88003 0.620002 3.32003C0.054034 6.68189 -0.120463 10.098 0.100002 13.5C0.147637 14.7475 0.352591 15.9839 0.710002 17.18C1.55 18.59 7.06 18.64 8.71 18.65C8.04885 19.5037 7.73134 20.5739 7.82 21.65L5.66 21.8C5.58044 21.8 5.50413 21.8316 5.44787 21.8879C5.39161 21.9442 5.36 22.0205 5.36 22.1C5.36 22.1796 5.39161 22.2559 5.44787 22.3122C5.50413 22.3684 5.58044 22.4 5.66 22.4C7.66 22.47 9.18 22.67 11.66 22.65C14.14 22.63 15.72 22.42 17.73 22.27C17.7788 22.2785 17.8289 22.2762 17.8768 22.2633C17.9246 22.2503 17.9691 22.2271 18.007 22.1952C18.0449 22.1633 18.0754 22.1234 18.0963 22.0785C18.1173 22.0336 18.1281 21.9846 18.1281 21.935C18.1281 21.8855 18.1173 21.8365 18.0963 21.7916C18.0754 21.7466 18.0449 21.7068 18.007 21.6749C17.9691 21.643 17.9246 21.6197 17.8768 21.6068C17.8289 21.5939 17.7788 21.5916 17.73 21.6H15.89C15.7675 20.4944 15.4277 19.4239 14.89 18.45C17.1623 18.3271 19.422 18.033 21.65 17.57C23.1 17.2 23.36 16.83 23.55 15.76C24.1284 12.2997 24.1587 8.76984 23.64 5.30003ZM15.12 21.6C12.27 21.53 10.87 21.51 8.57 21.6C8.73 21.21 8.97 20.69 9.08 20.31C9.2227 19.7687 9.323 19.217 9.38 18.66C9.38 18.54 9.65 18.74 14.06 18.47C14.149 19.585 14.5132 20.6605 15.12 21.6Z" fill="#003366"/>
<path id="Vector_3" fill-rule="evenodd" clip-rule="evenodd" d="M9.35999 9.16001C9.35999 9.16001 8.77999 9.33001 9.00999 9.66001C9.39999 10.25 10.07 11.28 10.73 11.32C11.86 11.38 13.19 8.25001 13.67 7.23001C13.8191 7.07411 13.9138 6.87417 13.94 6.66001C13.9331 6.58804 13.904 6.51998 13.8568 6.46518C13.8096 6.41039 13.7466 6.37155 13.6765 6.35402C13.6063 6.33648 13.5325 6.3411 13.4651 6.36724C13.3976 6.39339 13.34 6.43977 13.3 6.50001C13.06 6.78001 10.62 10.32 10.68 10.41C10.49 10.44 9.49999 9.25001 9.35999 9.16001Z" fill="#003366"/>
</g>
</svg>
