<svg width="20" height="25" viewBox="0 0 20 25" fill="none" xmlns="http://www.w3.org/2000/svg">
<g id="Group">
<path id="Vector" d="M16.83 7.74999C16.5424 7.49386 16.2384 7.2567 15.92 7.03999L16 6.96999C16.06 6.89999 16.18 6.83999 16.27 6.74999C16.38 6.62549 16.4741 6.48776 16.55 6.33999C16.6 6.23999 16.64 6.13999 16.68 6.04999L17.24 6.34999C17.356 6.43222 17.4799 6.50258 17.61 6.55999C17.81 6.61999 17.94 6.55999 18 6.55999C18.06 6.55999 18.15 6.41999 18.13 6.27999C18.1288 6.21482 18.1095 6.15127 18.0742 6.0965C18.0388 6.04173 17.9889 5.99792 17.93 5.96999C17.93 5.90999 17.79 5.78999 17.77 5.75999L17.26 5.17999C17.0673 5.00996 16.8635 4.85295 16.65 4.70999C16.48 4.60999 16.3 4.55999 16.13 4.47999C15.56 4.24999 15.43 4.13999 15.23 4.21999C15.03 4.29999 14.93 4.47999 15.23 4.78999C15.3831 4.96328 15.5467 5.12693 15.72 5.27999C15.84 5.37999 15.94 5.49999 16.05 5.60999L15.94 5.66999C15.81 5.78999 15.63 5.85999 15.5 5.98999C15.3729 6.11835 15.2681 6.26707 15.19 6.42999V6.58999C13.8291 5.8606 12.3369 5.40854 10.8 5.25999V5.09999C10.8101 4.97687 10.8101 4.85312 10.8 4.72999C10.8142 4.61041 10.8142 4.48957 10.8 4.36999C10.8 4.13999 10.69 3.88999 10.61 3.56999C11.18 3.56999 11.75 3.46999 12.33 3.37999C12.4078 3.37237 12.4796 3.33465 12.5301 3.27488C12.5805 3.21511 12.6056 3.138 12.6 3.05999C12.5963 3.02052 12.5847 2.98218 12.5661 2.9472C12.5474 2.91221 12.522 2.88127 12.4913 2.85616C12.4606 2.83106 12.4253 2.81228 12.3873 2.80092C12.3493 2.78956 12.3094 2.78585 12.27 2.78999C11.5107 2.83511 10.7493 2.83511 9.99001 2.78999C9.50291 2.73272 9.0213 2.63573 8.55001 2.49999C8.39255 2.4533 8.24625 2.37505 8.12001 2.26999C8.02001 2.19999 7.88001 2.14999 7.92001 2.03999C7.99445 1.92139 8.10231 1.82745 8.23001 1.76999C8.31538 1.71931 8.41109 1.68855 8.51001 1.67999C9.16001 1.62999 9.90001 1.52999 10.61 1.48999C10.8965 1.47536 11.1835 1.47536 11.47 1.48999C11.7431 1.47446 12.0169 1.47446 12.29 1.48999C12.4248 1.50448 12.5546 1.5489 12.67 1.61999C12.7586 1.68101 12.8196 1.77438 12.84 1.87999C12.8752 2.02117 12.8752 2.16881 12.84 2.30999C12.8279 2.35333 12.8245 2.39864 12.8301 2.44329C12.8356 2.48795 12.85 2.53106 12.8723 2.57012C12.8946 2.60919 12.9245 2.64344 12.9601 2.67088C12.9958 2.69832 13.0365 2.71842 13.08 2.72999C13.1662 2.7548 13.2587 2.74455 13.3374 2.70147C13.416 2.65839 13.4745 2.58597 13.5 2.49999C13.5851 2.19923 13.5851 1.88076 13.5 1.57999C13.4385 1.34826 13.3056 1.14181 13.12 0.989992C12.9201 0.833931 12.6877 0.724593 12.44 0.669992C12.1398 0.60908 11.8357 0.568985 11.53 0.549992C11.1117 0.503588 10.6907 0.48688 10.27 0.499992C9.65001 0.499992 9.02001 0.549992 8.45001 0.559992C8.11154 0.577725 7.78528 0.692262 7.51001 0.889992C7.21338 1.08555 6.98047 1.36364 6.84001 1.68999C6.76803 1.89597 6.75614 2.11817 6.80572 2.33066C6.8553 2.54314 6.9643 2.73714 7.12001 2.88999C7.46152 3.20925 7.88917 3.42133 8.35001 3.49999C8.86385 3.56649 9.38205 3.59324 9.90001 3.57999C9.83001 3.87999 9.77001 4.11999 9.73001 4.33999C9.72129 4.46317 9.72129 4.58681 9.73001 4.70999V5.07999C9.72672 5.10321 9.72672 5.12677 9.73001 5.14999C8.86751 5.11375 8.00352 5.16064 7.15001 5.28999C5.63848 5.56699 4.23624 6.26619 3.10544 7.30674C1.97464 8.34728 1.16149 9.68667 0.760007 11.17C-0.151288 14.0684 0.118241 17.2093 1.51001 19.91C3.23001 23.13 7.62001 24.82 11.67 24.39C21.62 23.38 21.11 11.61 16.83 7.74999ZM16.46 21.66C15.46 22.87 12.99 23.4 10 23.56C7.01001 23.72 5.24001 22.16 3.23001 20.56C2.94833 20.2353 2.7097 19.8757 2.52001 19.49C1.29667 17.0442 1.07079 14.219 1.89001 11.61C2.27194 10.3316 2.95822 9.16493 3.89001 8.20999C4.86384 7.30497 6.06183 6.67663 7.36001 6.38999C8.98792 6.10267 10.6566 6.14005 12.27 6.49999C13.709 6.88643 15.0648 7.53383 16.27 8.40999C17.8464 10.2986 18.7442 12.6611 18.82 15.12C18.88 17.75 18 20.38 16.46 21.66Z" fill="#003366"/>
<g id="Group_2">
<path id="Vector_2" d="M10.2 22.25C10.2 22.25 10.14 20.79 9.79003 20.79C9.68003 20.79 9.60003 20.85 9.50003 20.97C9.42452 21.1559 9.37407 21.3509 9.35003 21.55C9.30532 21.7128 9.2851 21.8813 9.29003 22.05C9.29459 22.2116 9.31469 22.3723 9.35003 22.53C9.44781 22.6341 9.5785 22.7012 9.72003 22.72C10.2 22.72 10.19 22.4 10.2 22.25Z" fill="#343434"/>
<path id="Vector_3" d="M10.2 7.50001C10.2 7.50001 10.14 8.96001 9.79003 8.96001C9.68003 8.96001 9.60003 8.96001 9.50003 8.78001C9.42333 8.59458 9.37285 8.39937 9.35003 8.20001C9.30512 8.0407 9.28488 7.87545 9.29003 7.71001C9.29519 7.5452 9.31527 7.38119 9.35003 7.22001C9.44781 7.11596 9.5785 7.04885 9.72003 7.03001C10.2 7.02001 10.19 7.35001 10.2 7.50001Z" fill="#343434"/>
<path id="Vector_4" d="M16.55 14.02C16.21 14.09 15.91 14.24 15.55 14.3C15.4784 14.3 15.4097 14.3284 15.3591 14.3791C15.3085 14.4297 15.28 14.4984 15.28 14.57C15.28 14.6416 15.3085 14.7103 15.3591 14.7609C15.4097 14.8115 15.4784 14.84 15.55 14.84C15.9134 14.9004 16.2823 14.9206 16.65 14.9C16.85 14.9 17.06 14.84 17.28 14.83L17.58 14.77C17.6459 14.702 17.6874 14.6142 17.6983 14.5202C17.7091 14.4262 17.6886 14.3312 17.64 14.25C17.6041 14.1809 17.5531 14.1208 17.4907 14.074C17.4284 14.0273 17.3564 13.9952 17.28 13.98C17.036 13.9644 16.7909 13.9778 16.55 14.02Z" fill="#343434"/>
<path id="Vector_5" d="M15.65 19.79C15.5446 19.6406 15.4311 19.497 15.31 19.36C15.1636 19.2021 15.003 19.0582 14.83 18.93C14.6711 18.8027 14.504 18.6858 14.33 18.58C14.2642 18.536 14.1887 18.5085 14.11 18.5C14.0384 18.5 13.9697 18.5284 13.9191 18.5791C13.8684 18.6297 13.84 18.6984 13.84 18.77C13.84 18.9 13.78 18.77 14.3 19.46C14.38 19.57 14.45 19.72 14.56 19.87C14.6657 20.0095 14.7827 20.1399 14.91 20.26C14.954 20.3055 15.0069 20.3414 15.0654 20.3654C15.1239 20.3895 15.1867 20.4013 15.25 20.4C15.55 20.33 15.81 20.01 15.65 19.79Z" fill="#343434"/>
<path id="Vector_6" d="M14.08 9.25003C14 9.40003 13.94 9.55003 13.88 9.67003C13.82 9.79003 13.63 10.04 13.58 10.18C13.5499 10.2426 13.5329 10.3107 13.53 10.38C13.53 10.4516 13.5585 10.5203 13.6091 10.5709C13.6597 10.6216 13.7284 10.65 13.8 10.65C13.8 10.65 13.86 10.74 14.5 10.12L14.78 9.82003C14.8595 9.71768 14.9329 9.61084 15 9.50003C15.06 9.40003 15.11 9.30003 15.16 9.20003C15.1753 9.16712 15.1831 9.13129 15.1831 9.09503C15.1831 9.05877 15.1753 9.02294 15.16 8.99003C15.1 8.67003 14.91 8.56003 14.52 8.70003C14.44 8.77003 14.42 8.70003 14.35 8.83003C14.2476 8.96165 14.1572 9.10221 14.08 9.25003Z" fill="#343434"/>
<path id="Vector_7" d="M3.69001 13.85C4.02001 13.92 4.32001 14.07 4.69001 14.13C4.76161 14.13 4.83029 14.1584 4.88092 14.2091C4.93156 14.2597 4.96001 14.3284 4.96001 14.4C4.96001 14.4716 4.93156 14.5403 4.88092 14.5909C4.83029 14.6416 4.76161 14.67 4.69001 14.67C4.32712 14.7345 3.95775 14.7546 3.59001 14.73C3.38001 14.73 3.17001 14.67 2.95001 14.66L2.65001 14.6C2.58417 14.532 2.54261 14.4442 2.53177 14.3502C2.52092 14.2562 2.54139 14.1612 2.59001 14.08C2.77001 13.82 2.95001 13.81 2.95001 13.81C3.19739 13.7947 3.44571 13.8081 3.69001 13.85Z" fill="#343434"/>
<path id="Vector_8" d="M4.30004 19.34C4.40218 19.1882 4.51585 19.0444 4.64003 18.91C4.78517 18.7568 4.94606 18.6194 5.12003 18.5C5.27898 18.3727 5.44599 18.2558 5.62003 18.15C5.68583 18.106 5.76132 18.0785 5.84004 18.07C5.91164 18.07 5.98032 18.0985 6.03095 18.1491C6.08159 18.1997 6.11003 18.2684 6.11003 18.34C6.11003 18.47 6.17004 18.34 5.65004 19.03C5.57004 19.14 5.50003 19.29 5.39003 19.44C5.28437 19.5795 5.1673 19.7099 5.04004 19.83C4.99604 19.8755 4.94313 19.9114 4.88463 19.9355C4.82613 19.9595 4.76329 19.9713 4.70003 19.97C4.40003 19.88 4.14004 19.56 4.30004 19.34Z" fill="#343434"/>
<path id="Vector_9" d="M6.15001 9.25003C6.23001 9.40003 6.29001 9.55003 6.35001 9.67003C6.41001 9.79003 6.60001 10.04 6.65001 10.18C6.66787 10.2455 6.66787 10.3146 6.65001 10.38C6.65006 10.4499 6.62299 10.5171 6.5745 10.5675C6.52601 10.6179 6.45987 10.6474 6.39001 10.65C6.39001 10.65 6.32001 10.74 5.68001 10.12L5.41001 9.82003C5.34779 9.7164 5.29105 9.60959 5.24001 9.50003C5.18001 9.40003 5.13001 9.30003 5.08001 9.20003C5.05471 9.13231 5.05471 9.05774 5.08001 8.99003C5.14001 8.67003 5.34001 8.56003 5.72001 8.70003C5.80001 8.77003 5.82001 8.70003 5.90001 8.83003C5.99582 8.96221 6.0795 9.10278 6.15001 9.25003Z" fill="#343434"/>
</g>
</g>
</svg>
